# xmcd
#
# Track frame offsets:
#	150
#	11874
#	22477
#	40498
#	52805
#	64358
#	73631
#	92214
#	111748
#	122441
#	133206
#	144111
#	159113
#	176367
#	190625
#
# Disc length: 2746 seconds
#
# Revision: 0
# Processed by: cddbd v1.5.1PL2 Copyright (c) Steve Scherf et al.
# Submitted via: dBpowerAMP V4.0
#
DISCID=d60ab80f
DTITLE=Jerry Lee Lewis - The Killer
DYEAR=2004
DGENRE=Country
TTITLE0=Chantilly Lace
TTITLE1=Brown Eyed Handsome Man
TTITLE2=No Headstone On My Grave
TTITLE3=Great Balls Of Fire
TTITLE4=Meat Man
TTITLE5=High School Confidential
TTITLE6=Johnny B Goode
TTITLE7=What'd I Say
TTITLE8=Down The Line (Go Go Go)
TTITLE9=Boogie Woogie Country Boy
TTITLE10=Roll Over Beethoven
TTITLE11=Cold Cold heart
TTITLE12=Little Queenie
TTITLE13=Big Legged woman
TTITLE14=Lucille
EXTD=
EXTT0=
EXTT1=
EXTT2=
EXTT3=
EXTT4=
EXTT5=
EXTT6=
EXTT7=
EXTT8=
EXTT9=
EXTT10=
EXTT11=
EXTT12=
EXTT13=
EXTT14=
PLAYORDER=
